
<svg version="1.1" xmlns="http://www.w3.org/2000/svg" fill="#FFFFF" width="940" height="940">
<path d="M0 0 C128.0946875 0 128.0946875 0 147.71484375 18.65625 C159.60939023 30.85578485 164.4150342 44.96466667 164.3125 61.8125 C164.30686035 62.78300293 164.3012207 63.75350586 164.29541016 64.75341797 C164.04513035 79.54470697 159.66727834 93.33272166 149 104 C148.34 104 147.68 104 147 104 C147 104.66 147 105.32 147 106 C145.12890625 107.55078125 145.12890625 107.55078125 142.5625 109.3125 C141.73878906 109.88613281 140.91507813 110.45976562 140.06640625 111.05078125 C136.13951561 113.54698307 132.08669565 115.77800342 128 118 C129.75500164 122.46352722 131.51186241 126.9263182 133.27023315 131.38851929 C133.92321758 133.04568211 134.57598872 134.70292899 135.22854614 136.36026001 C139.59300975 147.4410039 143.99901566 158.50417921 148.44921875 169.55078125 C149.36884431 171.83673955 150.28844079 174.12270956 151.20800781 176.40869141 C152.57104988 179.79658993 153.9359532 183.18367988 155.30651855 186.56854248 C156.5929455 189.74573013 157.87318519 192.92534929 159.15234375 196.10546875 C159.54225998 197.0631868 159.93217621 198.02090485 160.33390808 199.00764465 C160.68641129 199.88708237 161.03891449 200.76652008 161.40209961 201.67260742 C161.71215439 202.43957443 162.02220917 203.20654144 162.34165955 203.99674988 C163 206 163 206 163 209 C149.47 209 135.94 209 122 209 C115.8436785 193.77005025 109.92794995 178.4558828 104.10693359 163.09545898 C102.85955494 159.80422378 101.60784966 156.51465182 100.35509682 153.2254591 C99.14295226 150.04062693 97.93499627 146.85421076 96.7265625 143.66796875 C96.05785629 141.91325508 96.05785629 141.91325508 95.37564087 140.12309265 C94.96115692 139.02697159 94.54667297 137.93085052 94.11962891 136.80151367 C93.75737213 135.84701828 93.39511536 134.89252289 93.0218811 133.90910339 C91.87742506 130.65105219 90.94867046 127.32034661 90 124 C73.17 124 56.34 124 39 124 C39 152.05 39 180.1 39 209 C26.13 209 13.26 209 0 209 C0 140.03 0 71.06 0 0 Z M39 32 C39 52.13 39 72.26 39 93 C48.4875 92.938125 57.975 92.87625 67.75 92.8125 C70.7209668 92.80581299 73.69193359 92.79912598 76.75292969 92.79223633 C79.14260023 92.76575995 81.53225172 92.73747605 83.921875 92.70703125 C85.13439941 92.71101929 86.34692383 92.71500732 87.59619141 92.71911621 C96.04462477 92.58001574 102.46025794 90.78170479 110 87 C111.11375 86.443125 112.2275 85.88625 113.375 85.3125 C118.83203304 80.50511375 122.72985415 73.61609513 123.2734375 66.33984375 C123.60201001 56.36897543 123.24938115 48.63135275 116.12109375 40.984375 C106.57058584 32.61229072 94.46877808 31.39480851 82.26171875 31.609375 C81.15429321 31.61340332 80.04686768 31.61743164 78.90588379 31.62158203 C74.83291671 31.64225486 70.76018882 31.69809667 66.6875 31.75 C57.550625 31.8325 48.41375 31.915 39 32 Z " fill="#FFF" transform="translate(583,342)"/>
<path d="M0 0 C24.01609891 21.74251949 33.85100183 51.98418006 35.42797852 83.60961914 C36.29363992 106.63882253 32.85689713 129.43276608 22.30249023 150.09301758 C21.82811523 151.05079102 21.35374023 152.00856445 20.86499023 152.99536133 C10.11719787 173.81920904 -7.56067645 187.94916798 -29.69750977 195.09301758 C-37.84166104 197.32165357 -45.91810454 197.48014743 -54.32250977 197.46801758 C-55.31879395 197.46670334 -55.31879395 197.46670334 -56.33520508 197.46536255 C-76.98723472 197.37547646 -94.09421575 192.14724811 -109.69750977 178.09301758 C-110.30852539 177.56321289 -110.91954102 177.0334082 -111.54907227 176.48754883 C-132.23685085 157.35843849 -141.59129744 126.177779 -142.84545898 98.87182617 C-143.8659133 63.92761206 -136.60044932 32.35373008 -112.69750977 6.09301758 C-84.22172698 -23.64189846 -31.44209889 -27.34116832 0 0 Z M-84.07250977 26.21801758 C-94.14789448 38.75999025 -97.6251531 54.45217833 -99.69750977 70.09301758 C-99.8096582 70.92446289 -99.92180664 71.7559082 -100.03735352 72.61254883 C-102.52324863 94.78128471 -100.73899607 118.20447207 -92.69750977 139.09301758 C-92.1619043 140.50260742 -92.1619043 140.50260742 -91.61547852 141.94067383 C-87.15372669 152.14121599 -79.26256673 159.12210966 -69.04516602 163.25317383 C-59.38020158 166.71069022 -46.71314285 166.63100188 -37.22094727 162.48364258 C-29.18350935 158.05434243 -22.46700568 153.01273611 -17.69750977 145.09301758 C-17.04008789 144.02180664 -17.04008789 144.02180664 -16.36938477 142.92895508 C-2.17254412 117.35753729 -4.03446386 78.55897712 -11.21313477 51.12231445 C-14.59783825 39.4329992 -20.07704205 26.8205098 -30.69750977 20.09301758 C-48.15860737 11.38520458 -69.72493864 11.10231645 -84.07250977 26.21801758 Z " fill="#FFF" transform="translate(334.697509765625,356.906982421875)"/>
<path d="M0 0 C16.65176286 14.90784456 25.13067274 34.01152314 29.39794922 55.62402344 C29.39794922 56.94402344 29.39794922 58.26402344 29.39794922 59.62402344 C22.70688439 61.00939809 15.99559519 61.97769779 9.21044922 62.74902344 C8.4629541 62.83651855 7.71545898 62.92401367 6.9453125 63.01416016 C2.06698418 63.54855054 -2.69470019 63.70182968 -7.60205078 63.62402344 C-7.83279297 62.68042969 -8.06353516 61.73683594 -8.30126953 60.76464844 C-12.13788185 45.48621002 -16.50209786 31.14579293 -30.13720703 22.03417969 C-39.05104529 16.9345036 -49.40393401 16.34011924 -59.27392578 18.80761719 C-69.54303028 22.40869578 -75.72009449 28.80782173 -80.72705078 38.18652344 C-85.79764389 48.8321142 -88.15836215 59.98333406 -89.60205078 71.62402344 C-89.71419922 72.40519531 -89.82634766 73.18636719 -89.94189453 73.99121094 C-93.10579387 99.04235915 -90.97547411 130.86450742 -75.89501953 152.01855469 C-69.48110412 159.89552209 -61.15808791 164.89406988 -51.06689453 166.44042969 C-40.01666758 167.26350523 -30.20334666 163.78366843 -21.70361328 156.72558594 C-12.8919711 147.91394376 -8.54482647 135.88010735 -7.60205078 123.62402344 C4.55523036 122.99399159 16.39716603 124.8891928 28.39794922 126.62402344 C29.5216327 131.35502686 28.93444845 135.02909339 27.77294922 139.68652344 C27.49608276 140.81598389 27.49608276 140.81598389 27.21362305 141.96826172 C22.196282 161.62317721 11.06841352 179.09581267 -6.60205078 189.62402344 C-25.90635223 201.04113886 -50.93067193 203.49118172 -72.66455078 197.99902344 C-94.39268855 191.3242142 -108.5405137 176.85276765 -119.41455078 157.37792969 C-126.74929446 143.45140128 -130.32673736 129.12075268 -132.60205078 113.62402344 C-132.78767578 112.39039063 -132.97330078 111.15675781 -133.16455078 109.88574219 C-137.16803719 76.58548779 -130.77062254 39.71564418 -110.10595703 12.71386719 C-97.55589232 -2.77303014 -81.41029077 -12.21892038 -61.60205078 -15.00097656 C-40.17585567 -17.03277093 -16.87942077 -14.49747264 0 0 Z " fill="#FFF" transform="translate(525.60205078125,354.3759765625)"/>
<!--<path d="M0 0 C1.92568565 -0.01007584 1.92568565 -0.01007584 3.89027405 -0.02035522 C7.39656963 -0.03794925 10.90276746 -0.04270776 14.40910292 -0.0439868 C16.60376585 -0.04541254 18.79840425 -0.04969009 20.99306107 -0.05498123 C28.66091732 -0.07345866 36.32870425 -0.08165459 43.99658203 -0.08007812 C51.12611077 -0.07887687 58.25533672 -0.09998168 65.38478887 -0.13156545 C71.52176463 -0.15777653 77.65864176 -0.16844343 83.79567301 -0.16716731 C87.45405345 -0.16665915 91.11216444 -0.17226076 94.77048874 -0.19352341 C98.85371128 -0.21661018 102.93626113 -0.20735552 107.01953125 -0.1953125 C108.21982468 -0.20655151 109.4201181 -0.21779053 110.65678406 -0.22937012 C120.2793282 -0.15738176 127.49885105 2.06675227 134.63916016 8.66162109 C142.25747377 16.93463354 142.43552513 27.09008403 142.39794922 37.71411133 C142.40320618 39.55223389 142.40320618 39.55223389 142.40856934 41.42749023 C142.41583404 44.76851129 142.41417246 48.10928273 142.40781116 51.45028949 C142.40272053 54.96011341 142.4074512 58.46992722 142.4105835 61.97975159 C142.41421473 67.87315772 142.40944672 73.76651361 142.39990234 79.65991211 C142.38902446 86.45480233 142.3925419 93.24957245 142.40355515 100.04445976 C142.41265815 105.89695298 142.41389848 111.74941024 142.40867782 117.60190827 C142.40557397 121.08915775 142.40510473 124.57635095 142.41175079 128.06359673 C142.41864988 131.95496083 142.40906245 135.8461926 142.39794922 139.73754883 C142.40199768 140.88016678 142.40604614 142.02278473 142.41021729 143.20002747 C142.35441755 153.78095251 141.13683171 162.04384348 134.13916016 170.29052734 C127.19592377 176.70326926 119.7979091 177.74716326 110.55712891 177.61083984 C105.97498 177.18142703 102.86862508 175.91024904 99.13916016 173.29052734 C98.25228516 172.71302734 97.36541016 172.13552734 96.45166016 171.54052734 C89.95762372 165.2220054 87.12614862 157.60714157 86.89865112 148.60803223 C86.89292403 146.86743528 86.89800914 145.12677972 86.91210938 143.38623047 C86.91181732 142.42921234 86.91152527 141.47219421 86.91122437 140.48617554 C86.91260885 137.34794801 86.92812843 134.20996299 86.94384766 131.07177734 C86.94758092 128.88602834 86.95042641 126.70027765 86.9524231 124.51452637 C86.96003487 118.78034796 86.97966222 113.04627193 87.00183105 107.31213379 C87.02234247 101.45338323 87.03143612 95.59461601 87.04150391 89.73583984 C87.06291047 78.25402419 87.09701668 66.7722843 87.13916016 55.29052734 C85.93361481 55.29718918 84.72806946 55.30385101 83.48599243 55.31071472 C72.09883994 55.37165363 60.71172075 55.41656129 49.32444191 55.44596386 C43.47078251 55.4615884 37.61725524 55.48276802 31.76367188 55.5168457 C26.1096912 55.54955362 20.45583727 55.5674045 14.80176926 55.57515907 C12.64971295 55.58068208 10.4976632 55.59146699 8.34566116 55.60771751 C5.32046013 55.62964364 2.29577612 55.63248792 -0.72949219 55.63110352 C-2.05012161 55.64728226 -2.05012161 55.64728226 -3.39743042 55.66378784 C-13.14572853 55.6158333 -21.77322341 53.2202904 -28.86083984 46.29052734 C-34.39199632 39.99936463 -36.14799092 32.1076524 -35.73974609 23.83740234 C-34.26598928 15.14679515 -29.00023901 8.63644901 -22.08349609 3.48193359 C-15.01226635 -0.30844439 -7.83851325 -0.00589916 0 0 Z " fill="#FFF" transform="translate(732.86083984375,168.70947265625)"/>-->
<!--<path d="M0 0 C7.83600341 4.55404094 11.87864336 10.46953498 14.81089973 18.91396904 C16.20856731 24.2121437 16.17287025 29.3891634 16.12670898 34.84008789 C16.13481346 36.69108849 16.13481346 36.69108849 16.14308167 38.57948303 C16.15337246 41.93100038 16.14595461 45.28151387 16.12937045 48.63294148 C16.11540235 52.15962976 16.12199317 55.68629139 16.12550354 59.21299744 C16.12819611 65.13142164 16.1148115 71.04964192 16.09155273 76.96801758 C16.0649366 83.78743717 16.06320333 90.60651638 16.0749411 97.42597014 C16.0857602 104.01744205 16.07950034 110.60879216 16.06538582 117.20025444 C16.05966294 119.99147904 16.05967924 122.78261341 16.06445122 125.57383919 C16.07015687 129.47912364 16.0508037 133.38407436 16.02905273 137.28930664 C16.03580521 139.00479706 16.03580521 139.00479706 16.04269409 140.75494385 C15.94511632 151.34419033 14.07427829 160.14853062 6.625 168 C-1.37698615 175.38211399 -10.69439163 175.29658596 -21.07397461 175.2746582 C-22.32865036 175.27976913 -23.58332611 175.28488007 -24.87602234 175.29014587 C-28.29761173 175.30162 -31.71895794 175.30412266 -35.14054942 175.30158257 C-38.0056949 175.30050811 -40.87081838 175.30540827 -43.73595911 175.310188 C-50.49936405 175.32125819 -57.26271344 175.32173447 -64.02612305 175.31567383 C-70.98464588 175.30963391 -77.94296652 175.32195113 -84.90145487 175.3432439 C-90.89407696 175.36090138 -96.88663493 175.36685479 -102.87928206 175.36360615 C-106.45040459 175.36179994 -110.02138283 175.36436295 -113.59248161 175.37832069 C-117.57727773 175.39331471 -121.56181929 175.38389268 -125.54663086 175.37231445 C-126.71730103 175.37995819 -127.88797119 175.38760193 -129.09411621 175.39547729 C-139.45676728 175.32907541 -147.75696069 173.30200711 -155.375 166 C-160.46334478 160.22718244 -161.98538194 153.57257669 -162.375 146 C-161.90755946 139.8374166 -159.6649243 135.15421473 -156.375 130 C-155.715 130 -155.055 130 -154.375 130 C-154.14425781 129.39542969 -153.91351562 128.79085937 -153.67578125 128.16796875 C-152.01739277 125.40398796 -150.45399548 124.68671899 -147.5625 123.3125 C-146.71042969 122.89613281 -145.85835937 122.47976563 -144.98046875 122.05078125 C-139.30503592 119.76188855 -133.84019654 119.86234759 -127.8112793 119.88647461 C-126.85469925 119.88632858 -125.8981192 119.88618256 -124.91255188 119.8860321 C-121.75808425 119.88672747 -118.60367604 119.8945023 -115.44921875 119.90234375 C-113.25918103 119.90420926 -111.0691429 119.90563254 -108.87910461 119.90663147 C-103.12025802 119.91044613 -97.36143671 119.92026747 -91.6026001 119.93133545 C-85.7240025 119.94157214 -79.84540082 119.94613393 -73.96679688 119.95117188 C-62.43618681 119.96189067 -50.90559551 119.9789545 -39.375 120 C-39.38499275 118.19168198 -39.38499275 118.19168198 -39.39518738 116.34683228 C-39.45612628 104.95967979 -39.50103395 93.57256059 -39.53043652 82.18528175 C-39.54606105 76.33162235 -39.56724068 70.47809509 -39.60131836 64.62451172 C-39.63402628 58.97053105 -39.65187716 53.31667712 -39.65963173 47.6626091 C-39.66515473 45.51055279 -39.67593965 43.35850305 -39.69219017 41.20650101 C-39.7141163 38.18129997 -39.71696058 35.15661596 -39.71557617 32.13134766 C-39.726362 31.25092804 -39.73714783 30.37050842 -39.7482605 29.46340942 C-39.70511617 20.69294161 -37.78017949 12.67724604 -32.19140625 5.7578125 C-23.72793633 -2.43264226 -10.76986249 -4.92998313 0 0 Z " fill="#FFF" transform="translate(859.375,595)"/>-->
<!--<path d="M0 0 C1.28262222 -0.00700928 2.56524445 -0.01401855 3.88673401 -0.02124023 C7.37652815 -0.03933818 10.86584459 -0.03246293 14.35564613 -0.01972389 C18.0251548 -0.00952534 21.6946253 -0.01900845 25.36413574 -0.02526855 C31.52391832 -0.03252518 37.68350843 -0.02300974 43.84326172 -0.00390625 C50.94275765 0.01785884 58.04179393 0.01080604 65.14127874 -0.01121187 C71.26052172 -0.02942282 77.37962714 -0.03189653 83.49888849 -0.0214572 C87.14325133 -0.01525338 90.78739883 -0.01429996 94.43174744 -0.02760315 C98.49773939 -0.04141144 102.56295152 -0.02221964 106.62890625 0 C107.82089127 -0.00809692 109.01287628 -0.01619385 110.24098206 -0.02453613 C118.76435245 0.06142556 126.04694256 1.32338438 132.68945312 6.95507812 C133.39070312 7.80070313 134.09195313 8.64632812 134.81445312 9.51757812 C135.51570312 10.28070313 136.21695313 11.04382813 136.93945312 11.83007812 C141.64956764 18.58124227 142.81362822 25.36521768 141.81445312 33.51757812 C140.06318712 40.66858098 136.77618357 46.13943233 130.81445312 50.51757812 C125.34712199 53.54677511 119.90603601 55.64590067 113.61297607 55.63783264 C112.78289032 55.63920731 111.95280457 55.64058197 111.0975647 55.64199829 C110.19557343 55.63840302 109.29358215 55.63480774 108.36425781 55.63110352 C106.92960678 55.63132256 106.92960678 55.63132256 105.4659729 55.63154602 C102.3060682 55.63084961 99.14622252 55.62306986 95.98632812 55.61523438 C93.79486117 55.61336923 91.60339379 55.61194578 89.41192627 55.61094666 C83.64484505 55.60712906 77.87778904 55.59730522 72.11071777 55.58624268 C66.22550802 55.57601228 60.3402942 55.57144554 54.45507812 55.56640625 C42.90819206 55.5556823 31.36132469 55.53861494 19.81445312 55.51757812 C19.82111496 56.7105954 19.82777679 57.90361267 19.8346405 59.13278198 C19.89558232 70.40220496 19.94048846 81.67159428 19.96988964 92.94114494 C19.98551345 98.73427092 20.00669171 104.52726336 20.04077148 110.3203125 C20.07348204 115.91593861 20.09133083 121.51143665 20.09908485 127.10715103 C20.10460739 129.23687886 20.11539138 131.36660006 20.1316433 133.49627304 C20.15357296 136.49034258 20.15641356 139.4838898 20.1550293 142.47802734 C20.16581512 143.34909622 20.17660095 144.2201651 20.18771362 145.11763 C20.14325193 154.06517862 17.99454053 163.72675267 11.81445312 170.51757812 C3.06290447 176.94471546 -4.3841329 178.52262948 -15.18554688 177.51757812 C-22.84685981 175.24264765 -28.37963452 170.68752687 -32.17773438 163.68945312 C-34.52810634 158.54101929 -35.3081173 153.69578961 -35.32598877 148.08625793 C-35.33169891 147.00841034 -35.33740906 145.93056274 -35.34329224 144.8200531 C-35.3444101 143.64749466 -35.34552795 142.47493622 -35.34667969 141.2668457 C-35.35164459 140.0239679 -35.3566095 138.78109009 -35.36172485 137.50054932 C-35.37381205 134.09737422 -35.38128626 130.69426041 -35.38573551 127.29107118 C-35.3886733 125.16107754 -35.39277947 123.03108921 -35.39723969 120.90109825 C-35.41090552 114.22582743 -35.42057606 107.55056881 -35.42444158 100.87528497 C-35.42891712 93.19039873 -35.44644531 85.50569082 -35.47544217 77.82085878 C-35.49712011 71.86735641 -35.50714914 65.91390399 -35.50848269 59.96036261 C-35.50952656 56.41094733 -35.5153443 52.86169988 -35.53330231 49.31232643 C-35.55297726 45.346588 -35.54846973 41.38106908 -35.54199219 37.4152832 C-35.55120697 36.25284592 -35.56042175 35.09040863 -35.56991577 33.89274597 C-35.5231283 24.71910138 -34.53704796 16.15025263 -28.12304688 9.14257812 C-27.43082031 8.35109375 -26.73859375 7.55960938 -26.02539062 6.74414062 C-18.11190685 0.53962102 -9.75370108 -0.06625501 0 0 Z " fill="#FFF" transform="translate(107.185546875,168.482421875)"/>-->
<!--<path d="M0 0 C6.66057641 4.84618389 10.67605403 10.80926899 12.78587341 18.73222351 C13.4104172 22.85735429 13.35302967 26.92290538 13.33618164 31.08911133 C13.33632767 32.03593781 13.33647369 32.98276428 13.33662415 33.95828247 C13.33592883 37.08028473 13.32815426 40.20222694 13.3203125 43.32421875 C13.31844697 45.49183622 13.3170237 47.6594541 13.31602478 49.82707214 C13.31221027 55.52673511 13.30238906 61.22637251 13.2913208 66.92602539 C13.28108378 72.74429987 13.27652225 78.56257848 13.27148438 84.38085938 C13.26076585 95.79297997 13.2437022 107.20508161 13.22265625 118.6171875 C14.41789413 118.61274628 15.61313202 118.60830505 16.84458923 118.60372925 C28.12905734 118.56312033 39.41351054 118.53317293 50.69803524 118.51356316 C56.49899792 118.50314256 62.29990144 118.48901482 68.10083008 118.46630859 C73.70292807 118.44451879 79.30496928 118.43260591 84.9071064 118.42743301 C87.04044043 118.42374827 89.17377148 118.41655296 91.30708122 118.40572739 C94.30366518 118.39113097 97.30001686 118.38921297 100.29663086 118.39013672 C101.17129501 118.38294617 102.04595917 118.37575562 102.9471283 118.36834717 C112.33508325 118.39949886 120.07172513 119.63241545 127.0390625 126.375 C133.46775971 133.21975069 135.85259156 139.39440538 135.578125 148.8046875 C134.74122076 155.4263474 132.04021005 161.93345464 127.22265625 166.6171875 C118.28428961 173.44067274 109.43783784 173.91490279 98.52368164 173.8918457 C97.26900589 173.89695663 96.01433014 173.90206757 94.72163391 173.90733337 C91.30004452 173.9188075 87.87869831 173.92131016 84.45710683 173.91877007 C81.59196135 173.91769561 78.72683787 173.92259577 75.86169714 173.9273755 C69.0982922 173.93844569 62.33494281 173.93892197 55.5715332 173.93286133 C48.61301037 173.92682141 41.65468973 173.93913863 34.69620138 173.9604314 C28.70357929 173.97808888 22.71102132 173.98404229 16.71837419 173.98079365 C13.14725166 173.97898744 9.57627342 173.98155045 6.00517464 173.99550819 C2.02037852 174.01050221 -1.96416304 174.00108018 -5.94897461 173.98950195 C-7.11964478 173.99714569 -8.29031494 174.00478943 -9.49645996 174.01266479 C-19.43511043 173.94897982 -26.75104624 172.37813722 -34.0546875 165.4375 C-41.99925256 157.04256277 -42.07536272 147.98079494 -42.05200195 137.02587891 C-42.05711288 135.78256302 -42.06222382 134.53924713 -42.06748962 133.258255 C-42.07896352 129.86758848 -42.08146635 126.47716737 -42.07892632 123.08649874 C-42.07785164 120.24630072 -42.08275269 117.4061249 -42.08753175 114.56593168 C-42.09860228 107.86001807 -42.09907831 101.15416049 -42.09301758 94.44824219 C-42.08698043 87.55222258 -42.09928775 80.65640714 -42.12058765 73.76042235 C-42.13825615 67.81958876 -42.14419673 61.87881985 -42.1409499 55.93796098 C-42.13914512 52.39866411 -42.14169206 48.85951287 -42.15566444 45.32024002 C-42.17068075 41.36917492 -42.16122689 37.41836589 -42.1496582 33.46728516 C-42.15730194 32.309561 -42.16494568 31.15183685 -42.17282104 29.95903015 C-42.11101868 20.37620357 -40.81334344 10.70504959 -33.77734375 3.6171875 C-23.73500341 -4.32326765 -11.61099585 -6.68340249 0 0 Z " fill="#FFF" transform="translate(113.77734375,596.3828125)"/>-->
</svg>
